<svg width="204" height="46" viewBox="0 0 204 46" fill="none" xmlns="http://www.w3.org/2000/svg">
<rect width="204" height="46" rx="5" fill="white"/>
<g clip-path="url(#clip0)">
<path d="M42.8088 20.48L36.8463 16.105C36.3806 15.764 35.8295 15.5586 35.2542 15.5117C34.6789 15.4647 34.1019 15.578 33.5871 15.839C33.0722 16.1 32.6397 16.4984 32.3375 16.9902C32.0353 17.482 31.8752 18.0478 31.875 18.625V27.375C31.8751 27.9525 32.0352 28.5186 32.3375 29.0106C32.6399 29.5026 33.0726 29.9012 33.5878 30.1621C34.1029 30.4231 34.6803 30.5362 35.2558 30.489C35.8313 30.4417 36.3825 30.2359 36.8481 29.8944L42.8106 25.5194C43.2064 25.2291 43.5283 24.8497 43.7501 24.4119C43.972 23.9741 44.0876 23.4902 44.0876 22.9994C44.0876 22.5086 43.972 22.0247 43.7501 21.5868C43.5283 21.149 43.2064 20.7696 42.8106 20.4794L42.8088 20.48ZM42.0687 24.5113L36.1063 28.8863C35.8269 29.0904 35.4965 29.2133 35.1516 29.2412C34.8067 29.2692 34.4608 29.2012 34.1522 29.0448C33.8436 28.8883 33.5843 28.6495 33.403 28.3548C33.2217 28.0601 33.1255 27.721 33.125 27.375V18.625C33.1215 18.2783 33.2159 17.9377 33.3974 17.6423C33.5788 17.3469 33.8399 17.1087 34.1506 16.955C34.4149 16.8206 34.7072 16.7503 35.0037 16.75C35.4012 16.7515 35.7876 16.8806 36.1063 17.1181L42.0687 21.4931C42.3059 21.6673 42.4988 21.8949 42.6317 22.1574C42.7646 22.42 42.8339 22.7101 42.8339 23.0044C42.8339 23.2987 42.7646 23.5888 42.6317 23.8513C42.4988 24.1139 42.3059 24.3414 42.0687 24.5156V24.5113Z" fill="#8D0019"/>
</g>
<path d="M58.9238 27.1045C59.375 27.1045 59.7692 26.9678 60.1064 26.6943C60.4437 26.4209 60.6305 26.0791 60.667 25.6689H61.8633C61.8405 26.0928 61.6947 26.4961 61.4258 26.8789C61.1569 27.2617 60.7969 27.5671 60.3457 27.7949C59.8991 28.0228 59.4251 28.1367 58.9238 28.1367C57.9167 28.1367 57.1146 27.8018 56.5176 27.1318C55.9251 26.4574 55.6289 25.5368 55.6289 24.3701V24.1582C55.6289 23.4382 55.7611 22.7979 56.0254 22.2373C56.2897 21.6768 56.668 21.2415 57.1602 20.9316C57.6569 20.6217 58.2425 20.4668 58.917 20.4668C59.7464 20.4668 60.4346 20.7152 60.9814 21.2119C61.5329 21.7087 61.8268 22.3535 61.8633 23.1465H60.667C60.6305 22.668 60.4482 22.276 60.1201 21.9707C59.7965 21.6608 59.3955 21.5059 58.917 21.5059C58.2744 21.5059 57.7754 21.7383 57.4199 22.2031C57.069 22.6634 56.8936 23.3311 56.8936 24.2061V24.4453C56.8936 25.2975 57.069 25.9538 57.4199 26.4141C57.7708 26.8743 58.2721 27.1045 58.9238 27.1045ZM67.5439 26.3252L70.0596 20.6035H71.6387V28H70.374V22.6201L67.9814 28H67.1064L64.666 22.5039V28H63.4014V20.6035H65.042L67.5439 26.3252ZM73.3408 24.2334C73.3408 23.5088 73.4821 22.8571 73.7646 22.2783C74.0518 21.6995 74.4482 21.2529 74.9541 20.9385C75.4645 20.624 76.0456 20.4668 76.6973 20.4668C77.7044 20.4668 78.5179 20.8154 79.1377 21.5127C79.762 22.21 80.0742 23.1374 80.0742 24.2949V24.3838C80.0742 25.1038 79.9352 25.751 79.6572 26.3252C79.3838 26.8949 78.9896 27.3392 78.4746 27.6582C77.9642 27.9772 77.3763 28.1367 76.7109 28.1367C75.7083 28.1367 74.8949 27.7881 74.2705 27.0908C73.6507 26.3936 73.3408 25.4707 73.3408 24.3223V24.2334ZM74.6123 24.3838C74.6123 25.2041 74.8014 25.8626 75.1797 26.3594C75.5625 26.8561 76.0729 27.1045 76.7109 27.1045C77.3535 27.1045 77.8639 26.8538 78.2422 26.3525C78.6204 25.8467 78.8096 25.1403 78.8096 24.2334C78.8096 23.4222 78.6159 22.766 78.2285 22.2646C77.8457 21.7588 77.3353 21.5059 76.6973 21.5059C76.0729 21.5059 75.5693 21.7542 75.1865 22.251C74.8037 22.7477 74.6123 23.4587 74.6123 24.3838ZM87.0059 21.6289H84.5244V28H83.2598V21.6289H80.8262V20.6035H87.0059V21.6289ZM94.4844 24.3838C94.4844 25.5094 94.2269 26.4163 93.7119 27.1045C93.1969 27.7926 92.4997 28.1367 91.6201 28.1367C90.7223 28.1367 90.016 27.8519 89.501 27.2822V30.8438H88.2363V20.6035H89.3916L89.4531 21.4238C89.9681 20.7858 90.6836 20.4668 91.5996 20.4668C92.4883 20.4668 93.1901 20.8018 93.7051 21.4717C94.2246 22.1416 94.4844 23.0736 94.4844 24.2676V24.3838ZM93.2197 24.2402C93.2197 23.4062 93.042 22.7477 92.6865 22.2646C92.3311 21.7816 91.8434 21.54 91.2236 21.54C90.458 21.54 89.8838 21.8796 89.501 22.5586V26.0928C89.8792 26.7673 90.458 27.1045 91.2373 27.1045C91.8434 27.1045 92.3242 26.8652 92.6797 26.3867C93.0397 25.9036 93.2197 25.1882 93.2197 24.2402ZM99.167 28.1367C98.1644 28.1367 97.3486 27.8086 96.7197 27.1523C96.0908 26.4915 95.7764 25.6097 95.7764 24.5068V24.2744C95.7764 23.5407 95.9154 22.8867 96.1934 22.3125C96.4759 21.7337 96.8678 21.2826 97.3691 20.959C97.875 20.6309 98.4219 20.4668 99.0098 20.4668C99.9714 20.4668 100.719 20.7835 101.252 21.417C101.785 22.0505 102.052 22.9574 102.052 24.1377V24.6641H97.041C97.0592 25.3932 97.2712 25.9834 97.6768 26.4346C98.0869 26.8812 98.6064 27.1045 99.2354 27.1045C99.682 27.1045 100.06 27.0133 100.37 26.8311C100.68 26.6488 100.951 26.4072 101.184 26.1064L101.956 26.708C101.336 27.6605 100.407 28.1367 99.167 28.1367ZM99.0098 21.5059C98.4993 21.5059 98.071 21.6927 97.7246 22.0664C97.3783 22.4355 97.1641 22.9551 97.082 23.625H100.787V23.5293C100.751 22.8867 100.577 22.39 100.268 22.0391C99.9577 21.6836 99.5384 21.5059 99.0098 21.5059ZM108.936 21.6289H106.454V28H105.189V21.6289H102.756V20.6035H108.936V21.6289ZM111.547 23.1533H113.468C114.306 23.1624 114.969 23.3812 115.457 23.8096C115.945 24.238 116.188 24.819 116.188 25.5527C116.188 26.291 115.938 26.8835 115.437 27.3301C114.935 27.7767 114.261 28 113.413 28H110.282V20.6035H111.547V23.1533ZM111.547 24.1855V26.9678H113.427C113.901 26.9678 114.268 26.847 114.527 26.6055C114.787 26.3594 114.917 26.0244 114.917 25.6006C114.917 25.1904 114.789 24.8555 114.534 24.5957C114.284 24.3314 113.93 24.1947 113.475 24.1855H111.547ZM126.736 21.6289H124.255V28H122.99V21.6289H120.557V20.6035H126.736V21.6289ZM134.215 24.3838C134.215 25.5094 133.957 26.4163 133.442 27.1045C132.927 27.7926 132.23 28.1367 131.351 28.1367C130.453 28.1367 129.746 27.8519 129.231 27.2822V30.8438H127.967V20.6035H129.122L129.184 21.4238C129.699 20.7858 130.414 20.4668 131.33 20.4668C132.219 20.4668 132.921 20.8018 133.436 21.4717C133.955 22.1416 134.215 23.0736 134.215 24.2676V24.3838ZM132.95 24.2402C132.95 23.4062 132.772 22.7477 132.417 22.2646C132.062 21.7816 131.574 21.54 130.954 21.54C130.188 21.54 129.614 21.8796 129.231 22.5586V26.0928C129.61 26.7673 130.188 27.1045 130.968 27.1045C131.574 27.1045 132.055 26.8652 132.41 26.3867C132.77 25.9036 132.95 25.1882 132.95 24.2402ZM138.897 28.1367C137.895 28.1367 137.079 27.8086 136.45 27.1523C135.821 26.4915 135.507 25.6097 135.507 24.5068V24.2744C135.507 23.5407 135.646 22.8867 135.924 22.3125C136.206 21.7337 136.598 21.2826 137.1 20.959C137.605 20.6309 138.152 20.4668 138.74 20.4668C139.702 20.4668 140.449 20.7835 140.982 21.417C141.516 22.0505 141.782 22.9574 141.782 24.1377V24.6641H136.771C136.79 25.3932 137.002 25.9834 137.407 26.4346C137.817 26.8812 138.337 27.1045 138.966 27.1045C139.412 27.1045 139.791 27.0133 140.101 26.8311C140.41 26.6488 140.682 26.4072 140.914 26.1064L141.687 26.708C141.067 27.6605 140.137 28.1367 138.897 28.1367ZM138.74 21.5059C138.23 21.5059 137.801 21.6927 137.455 22.0664C137.109 22.4355 136.895 22.9551 136.812 23.625H140.518V23.5293C140.481 22.8867 140.308 22.39 139.998 22.0391C139.688 21.6836 139.269 21.5059 138.74 21.5059ZM148.037 20.6035H149.302V28H148.037V22.6064L144.626 28H143.361V20.6035H144.626V26.0039L148.037 20.6035ZM148.379 17.9102C148.379 18.4616 148.19 18.9059 147.812 19.2432C147.438 19.5758 146.946 19.7422 146.335 19.7422C145.724 19.7422 145.23 19.5736 144.852 19.2363C144.473 18.8991 144.284 18.457 144.284 17.9102H145.316C145.316 18.2292 145.403 18.4798 145.576 18.6621C145.749 18.8398 146.002 18.9287 146.335 18.9287C146.654 18.9287 146.902 18.8398 147.08 18.6621C147.262 18.4844 147.354 18.2337 147.354 17.9102H148.379ZM157.396 20.6035V28H156.124V21.6494H153.608L153.458 24.418C153.376 25.6895 153.162 26.5986 152.815 27.1455C152.474 27.6924 151.929 27.9772 151.182 28H150.676V26.8857L151.038 26.8584C151.448 26.8128 151.742 26.5758 151.92 26.1475C152.098 25.7191 152.212 24.9261 152.262 23.7686L152.398 20.6035H157.396ZM162.495 28.1367C161.493 28.1367 160.677 27.8086 160.048 27.1523C159.419 26.4915 159.104 25.6097 159.104 24.5068V24.2744C159.104 23.5407 159.243 22.8867 159.521 22.3125C159.804 21.7337 160.196 21.2826 160.697 20.959C161.203 20.6309 161.75 20.4668 162.338 20.4668C163.299 20.4668 164.047 20.7835 164.58 21.417C165.113 22.0505 165.38 22.9574 165.38 24.1377V24.6641H160.369C160.387 25.3932 160.599 25.9834 161.005 26.4346C161.415 26.8812 161.935 27.1045 162.563 27.1045C163.01 27.1045 163.388 27.0133 163.698 26.8311C164.008 26.6488 164.279 26.4072 164.512 26.1064L165.284 26.708C164.664 27.6605 163.735 28.1367 162.495 28.1367ZM162.338 21.5059C161.827 21.5059 161.399 21.6927 161.053 22.0664C160.706 22.4355 160.492 22.9551 160.41 23.625H164.115V23.5293C164.079 22.8867 163.906 22.39 163.596 22.0391C163.286 21.6836 162.867 21.5059 162.338 21.5059ZM173.098 24.3838C173.098 25.5094 172.84 26.4163 172.325 27.1045C171.81 27.7926 171.113 28.1367 170.233 28.1367C169.336 28.1367 168.629 27.8519 168.114 27.2822V30.8438H166.85V20.6035H168.005L168.066 21.4238C168.581 20.7858 169.297 20.4668 170.213 20.4668C171.102 20.4668 171.803 20.8018 172.318 21.4717C172.838 22.1416 173.098 23.0736 173.098 24.2676V24.3838ZM171.833 24.2402C171.833 23.4062 171.655 22.7477 171.3 22.2646C170.944 21.7816 170.457 21.54 169.837 21.54C169.071 21.54 168.497 21.8796 168.114 22.5586V26.0928C168.493 26.7673 169.071 27.1045 169.851 27.1045C170.457 27.1045 170.938 26.8652 171.293 26.3867C171.653 25.9036 171.833 25.1882 171.833 24.2402Z" fill="#8D0019"/>
<defs>
<clipPath id="clip0">
<rect width="15" height="15" fill="white" transform="translate(30 15.5)"/>
</clipPath>
</defs>
</svg>
