<svg width="843" height="215" viewBox="0 0 843 215" fill="none" xmlns="http://www.w3.org/2000/svg">
<g filter="url(#filter0_d)">
<path d="M36.136 2.4H4.168L35.272 204H82.504L113.608 2.4H84.52L60.328 166.848L36.136 2.4Z" fill="#EFE8F4"/>
<path d="M174.475 31.2H229.195V2.4H142.795V204H229.195V175.2H174.475V116.16H217.963V87.36H174.475V31.2Z" fill="#EFE8F4"/>
<path d="M330.906 204H363.45V2.4H335.226V123.072L302.682 2.4H262.938V204H291.45V57.984L330.906 204Z" fill="#EFE8F4"/>
<path d="M429.621 48.768C429.621 34.368 435.957 28.896 446.037 28.896C456.117 28.896 462.453 34.368 462.453 48.768V157.632C462.453 172.032 456.117 177.504 446.037 177.504C435.957 177.504 429.621 172.032 429.621 157.632V48.768ZM397.941 155.616C397.941 187.872 414.933 206.304 446.037 206.304C477.141 206.304 494.133 187.872 494.133 155.616V50.784C494.133 18.528 477.141 0.0960083 446.037 0.0960083C414.933 0.0960083 397.941 18.528 397.941 50.784V155.616Z" fill="#EFE8F4"/>
<path d="M572.896 2.4H528.832V204H556.48V61.44L580.096 204H610.048L631.936 59.424V204H661.888V2.4H617.824L596.224 145.536L572.896 2.4Z" fill="#EFE8F4"/>
<path d="M806.835 51.936C806.835 110.112 744.051 119.904 744.051 179.232V204H835.635V175.2H775.731C775.443 173.76 775.443 172.32 775.443 170.88C775.443 137.76 838.515 114.144 838.515 50.784C838.515 18.528 822.387 0.0960083 791.283 0.0960083C760.179 0.0960083 744.051 18.528 744.051 50.784V70.368H774.003V48.768C774.003 34.368 780.339 28.896 790.419 28.896C800.499 28.896 806.835 33.792 806.835 51.936Z" fill="#EFE8F4"/>
</g>
<defs>
<filter id="filter0_d" x="0.167999" y="0.0960083" width="842.347" height="214.208" filterUnits="userSpaceOnUse" color-interpolation-filters="sRGB">
<feFlood flood-opacity="0" result="BackgroundImageFix"/>
<feColorMatrix in="SourceAlpha" type="matrix" values="0 0 0 0 0 0 0 0 0 0 0 0 0 0 0 0 0 0 127 0"/>
<feOffset dy="4"/>
<feGaussianBlur stdDeviation="2"/>
<feColorMatrix type="matrix" values="0 0 0 0 0 0 0 0 0 0 0 0 0 0 0 0 0 0 0.25 0"/>
<feBlend mode="normal" in2="BackgroundImageFix" result="effect1_dropShadow"/>
<feBlend mode="normal" in="SourceGraphic" in2="effect1_dropShadow" result="shape"/>
</filter>
</defs>
</svg>
